HIERARCHY
ROOT ui
{
	 OFFSET 0 0 0
	 CHANNELS 3 XPosition YPosition Z Position
	 EndSite
	 {
	 OFFSET 0 -1 0
	 }
}
ROOT li
{
	 OFFSET 0 0 0
	 CHANNELS 3 XPosition YPosition Z Position
	 EndSite
	 {
	 OFFSET 0 -1 0
	 }
}
ROOT ul
{
	 OFFSET 0 0 0
	 CHANNELS 3 XPosition YPosition Z Position
	 EndSite
	 {
	 OFFSET 0 -1 0
	 }
}
ROOT ll
{
	 OFFSET 0 0 0
	 CHANNELS 3 XPosition YPosition Z Position
	 EndSite
	 {
	 OFFSET 0 -1 0
	 }
}
ROOT tt
{
	 OFFSET 0 0 0
	 CHANNELS 3 XPosition YPosition Z Position
	 EndSite
	 {
	 OFFSET 0 -1 0
	 }
}
ROOT tb
{
	 OFFSET 0 0 0
	 CHANNELS 3 XPosition YPosition Z Position
	 EndSite
	 {
	 OFFSET 0 -1 0
	 }
}
ROOT td
{
	 OFFSET 0 0 0
	 CHANNELS 3 XPosition YPosition Z Position
	 EndSite
	 {
	 OFFSET 0 -1 0
	 }
}
ROOT v
{
	 OFFSET 0 0 0
	 CHANNELS 3 XPosition YPosition Z Position
	 EndSite
	 {
	 OFFSET 0 -1 0
	 }
}
ROOT bn
{
	 OFFSET 0 0 0
	 CHANNELS 3 XPosition YPosition Z Position
	 EndSite
	 {
	 OFFSET 0 -1 0
	 }
}
MOTION
Frames: 10
Frame Time: 0.002
-0.0010905250310897826	-0.006399953842163086	0		0.46847158813476564	-2.331620849609375	0		-1.259484619140625	-0.15933518981933595	0		-0.7122305297851562	-2.406236572265625	0		1.739897705078125	-0.5837385864257812	0		3.2846416015625	-0.39232098388671877	0		4.65255029296875	-0.18134695434570314	0		5.8768505859375	0.28044308471679685	0		-0.4598695373535156	5.817861328125	0		
-0.006719162940979004	0.006204121112823487	0		0.46879092407226564	-2.332056396484375	0		-1.2513377685546876	-0.17288658142089844	0		-0.6749369506835937	-2.410028076171875	0		1.7889140625	-0.6135686645507813	0		3.29586474609375	-0.3977774047851563	0		4.65382958984375	-0.17967933654785156	0		5.88486181640625	0.27458432006835937	0		-0.45976828002929687	5.8174013671875	0		
-5.936700105667114E-4	-0.0072783842086791995	0		0.48792877197265627	-2.349642822265625	0		-1.2510946044921876	-0.17334255981445312	0		-0.7475751953125	-2.401833740234375	0		1.761948486328125	-0.6387252197265625	0		3.301129638671875	-0.39618414306640626	0		4.65812548828125	-0.1740496826171875	0		5.88865673828125	0.2895426940917969	0		-0.5277413940429687	5.806556640625	0		
0.00971498966217041	0.0022215991020202636	0		0.46933197021484374	-2.332883056640625	0		-1.1779171142578124	-0.17940962219238282	0		-0.6853141479492187	-2.401798095703125	0		1.799915283203125	-0.669444091796875	0		3.30416455078125	-0.4185763244628906	0		4.6703662109375	-0.17250270080566407	0		5.87898681640625	0.33243035888671874	0		-0.49354867553710935	5.81183984375	0		
-0.010090092658996581	0.0010028179883956908	0		0.46650732421875	-2.338246826171875	0		-1.2477452392578126	-0.183199951171875	0		-0.7261107177734375	-2.403838134765625	0		1.8058258056640626	-0.7038762817382812	0		3.323378173828125	-0.418113037109375	0		4.67750927734375	-0.17992500305175782	0		5.89048779296875	0.3160085754394531	0		-0.4933856201171875	5.811443359375	0		
1.4400999993085861E-5	-0.008457923889160156	0		0.4715768432617187	-2.351663818359375	0		-1.1756082763671876	-0.1892019500732422	0		-0.6610521850585938	-2.41877880859375	0		1.811703369140625	-0.7393013305664062	0		3.3313955078125	-0.4375563049316406	0		4.68870947265625	-0.1783953857421875	0		5.8906181640625	0.31536083984375	0		-0.4601416931152344	5.81778125	0		
1.7788399755954744E-4	-0.008810569763183593	0		0.48065359497070315	-2.36009814453125	0		-1.245478271484375	-0.19293460083007813	0		-0.7368765869140625	-2.415462890625	0		1.7925828857421875	-0.77149951171875	0		3.32446875	-0.447870849609375	0		4.6858193359375	-0.1847545928955078	0		5.89435595703125	0.3301725463867187	0		-0.49398834228515626	5.81172900390625	0		
0.007382305145263672	-0.002200860023498535	0		0.4807643127441406	-2.36043359375	0		-1.2413026123046875	-0.18928118896484375	0		-0.6868472900390625	-2.42521875	0		1.79853173828125	-0.7929049072265625	0		3.364376953125	-0.47459490966796875	0		4.70493359375	-0.18831472778320313	0		5.89445849609375	0.3294612121582031	0		-0.5268239135742188	5.8046962890625	0		
0.010531455039978028	4.7188600897789E-4	0		0.48083868408203123	-2.360744140625	0		-1.2411834716796875	-0.18955630493164063	0		-0.6518194580078125	-2.43081201171875	0		1.8433121337890626	-0.8306358642578126	0		3.37163916015625	-0.45802691650390626	0		4.7250517578125	-0.1888876953125	0		5.894544921875	0.32873007202148435	0		-0.49153884887695315	5.80909912109375	0		
-0.009375909805297851	-6.198920011520386E-4	0		0.49976971435546874	-2.373191162109375	0		-1.1721610107421876	-0.1983972625732422	0		-0.6707832641601562	-2.430894775390625	0		1.8560203857421875	-0.8730655517578125	0		3.365402099609375	-0.49533062744140627	0		4.7231123046875	-0.19326419067382813	0		5.894615234375	0.32799249267578123	0		-0.45921322631835937	5.81656298828125	0		
